# xmcd CD database file generated by Grip 3.0.7
# 
# Track frame offsets:
#       150
#       14736
#       42620
#       62789
#       80194
#       99651
#       120337
#       135538
#       151165
#       168525
#       184370
#       199239
# 
# Disc length: 2814 seconds
# 
# Revision: 1
# Processed by: cddbd v1.5PL3 Copyright (c) Steve Scherf et al.
# Submitted via: Grip 3.0.7
# 
DISCID=ad0afc0c
DTITLE=John Mellencamp - Trouble No More
DYEAR=2003
DGENRE=Blues
TTITLE0=Stones In My Passway
TTITLE1=Death Letter
TTITLE2=Johnny Hart
TTITLE3=Baltimore Oriole
TTITLE4=Teardrops Will Fall
TTITLE5=Diamond Joe
TTITLE6=The End Of The World
TTITLE7=Down In The Bottom
TTITLE8=Lafayette
TTITLE9=Joliet Bound
TTITLE10=John The Revelator
TTITLE11=To Washington
EXTD=
EXTT0=
EXTT1=
EXTT2=
EXTT3=
EXTT4=
EXTT5=
EXTT6=
EXTT7=
EXTT8=
EXTT9=
EXTT10=
EXTT11=
PLAYORDER=
